<?xml version="1.0" encoding="UTF-8" standalone="no"?>
<!-- Created with Inkscape (http://www.inkscape.org/) -->

<svg
   width="30.089722mm"
   height="26.070887mm"
   viewBox="0 0 30.089722 26.070887"
   version="1.1"
   id="svg1"
   xml:space="preserve"
   xmlns="http://www.w3.org/2000/svg"
   xmlns:svg="http://www.w3.org/2000/svg"><defs
     id="defs1"><marker
       style="overflow:visible"
       id="ArrowWideRounded"
       refX="0"
       refY="0"
       orient="auto-start-reverse"
       markerWidth="1"
       markerHeight="1"
       viewBox="0 0 1 1"
       preserveAspectRatio="xMidYMid"><path
         style="fill:none;stroke:context-stroke;stroke-width:1;stroke-linecap:round"
         d="M 3,-3 0,0 3,3"
         transform="rotate(180,0.125,0)"
         id="path2" /></marker></defs><g
     id="layer1"
     transform="translate(-39.162467,-65.584092)"><path
       style="fill:#000000;stroke-width:1.065;stroke-dasharray:8.52, 1.065;stroke-dashoffset:0;marker-mid:url(#ArrowWideRounded)"
       d="m 50.15793,73.814073 v 3.770313"
       id="path3" /><path
       style="fill:none;fill-opacity:1;stroke:#57068c;stroke-width:0.43652;stroke-dasharray:0.43652, 0.43652;stroke-dashoffset:0;stroke-opacity:1"
       d="M 51.285088,81.970303 V 77.357207"
       id="path15-0-3-3" /><path
       style="fill:none;fill-opacity:1;stroke:#57068c;stroke-width:0.43652;stroke-dasharray:0.43652, 0.43652;stroke-dashoffset:0;stroke-opacity:1"
       d="M 63.734467,82.12267 V 77.509574"
       id="path15-0-3-3-1" /><path
       style="fill:none;fill-opacity:1;stroke:#57068c;stroke-width:0.43652;stroke-dasharray:0.43652, 0.43652;stroke-dashoffset:0;stroke-opacity:1"
       d="m 55.080413,74.019229 h 4.613096"
       id="path15-0-3-3-8" /><path
       style="fill:none;fill-opacity:1;stroke:#57068c;stroke-width:0.43652;stroke-dasharray:0.43652, 0.43652;stroke-dashoffset:0;stroke-opacity:1"
       d="m 55.089442,85.900741 h 4.613096"
       id="path15-0-3-3-8-7" /><path
       style="fill:none;fill-opacity:1;stroke:#57068c;stroke-width:0.5;stroke-dasharray:none;stroke-dashoffset:0;stroke-opacity:1"
       d="M 69.002194,90.445202 V 67.268132"
       id="path15-0-3-3-7" /><path
       style="fill:none;fill-opacity:1;stroke:#57068c;stroke-width:0.514015;stroke-dasharray:none;stroke-dashoffset:0;stroke-opacity:1"
       d="M 42.3091,90.699435 V 71.272041"
       id="path15-0-3-3-7-8" /><path
       style="fill:none;fill-opacity:1;stroke:#57068c;stroke-width:0.627888;stroke-dasharray:none;stroke-dashoffset:0;stroke-opacity:1"
       d="M 46.064403,66.867873 H 68.07354"
       id="path15-0-3-3-7-8-6" /><path
       style="fill:none;fill-opacity:1;stroke:#57068c;stroke-width:0.607843;stroke-dasharray:none;stroke-dashoffset:0;stroke-opacity:1"
       d="M 42.012516,91.351056 H 68.816322"
       id="path15-0-3-3-7-8-6-9" /><g
       style="fill:none;stroke:currentColor;stroke-width:2;stroke-linecap:round;stroke-linejoin:round;stroke-dasharray:16, 2;stroke-dashoffset:0"
       id="g1"
       transform="matrix(0.26458333,0,0,0.26458333,47.932226,70.705096)"><rect
         width="20"
         height="8"
         x="2"
         y="2"
         rx="2"
         ry="2"
         id="rect1"
         style="stroke-dasharray:16, 2;stroke-dashoffset:0" /><rect
         width="20"
         height="8"
         x="2"
         y="14"
         rx="2"
         ry="2"
         id="rect2"
         style="stroke-dasharray:16, 2;stroke-dashoffset:0" /><line
         x1="6"
         x2="6.0100002"
         y1="6"
         y2="6"
         id="line2"
         style="stroke-dasharray:16, 2;stroke-dashoffset:0" /><line
         x1="6"
         x2="6.0100002"
         y1="18"
         y2="18"
         id="line3"
         style="stroke-dasharray:16, 2;stroke-dashoffset:0" /></g><g
       style="fill:none;stroke:#000000;stroke-width:2;stroke-linecap:round;stroke-linejoin:round"
       id="g2"
       transform="matrix(0.26458333,0,0,0.26458333,38.894106,64.516099)"><path
         d="M 17.5,19 H 9 a 7,7 0 1 1 6.71,-9 h 1.79 a 4.5,4.5 0 1 1 0,9 z"
         id="path1" /></g><g
       style="fill:none;stroke:currentColor;stroke-width:2;stroke-linecap:round;stroke-linejoin:round"
       id="g3"
       transform="matrix(0.26458333,0,0,0.26458333,48.327002,82.564359)"><ellipse
         cx="12"
         cy="5"
         rx="9"
         ry="3"
         id="ellipse1" /><path
         d="m 3,5 v 14 a 9,3 0 0 0 12,2.84"
         id="path1-5" /><path
         d="M 21,5 V 8"
         id="path2-9" /><path
         d="m 21,12 -3,5 h 4 l -3,5"
         id="path3-5" /><path
         d="m 3,12 a 9,3 0 0 0 11.59,2.87"
         id="path4" /></g><g
       style="fill:none;stroke:currentColor;stroke-width:2;stroke-linecap:round;stroke-linejoin:round"
       id="g4"
       transform="matrix(0.26458333,0,0,0.26458333,60.773745,70.723674)"><path
         d="M 2,21 V 3"
         id="path1-4" /><path
         d="m 2,5 h 18 a 2,2 0 0 1 2,2 v 8 a 2,2 0 0 1 -2,2 H 2.26"
         id="path2-91" /><path
         d="m 7,17 v 3 a 1,1 0 0 0 1,1 h 5 a 1,1 0 0 0 1,-1 v -3"
         id="path3-7" /><circle
         cx="16"
         cy="11"
         r="2"
         id="circle3" /><circle
         cx="8"
         cy="11"
         r="2"
         id="circle4" /></g><g
       style="fill:none;stroke:#000000;stroke-width:2;stroke-linecap:round;stroke-linejoin:round"
       id="g5"
       transform="matrix(0.26458333,0,0,0.26458333,59.501824,82.338907)"><rect
         width="8"
         height="8"
         x="3"
         y="3"
         rx="2"
         id="rect1-8" /><path
         d="m 7,11 v 4 a 2,2 0 0 0 2,2 h 4"
         id="path1-3" /><rect
         width="8"
         height="8"
         x="13"
         y="13"
         rx="2"
         id="rect2-5" /></g></g></svg>
