<?xml version="1.0" encoding="UTF-8" standalone="no"?>
<!-- Created with Inkscape (http://www.inkscape.org/) -->

<svg
   width="39.832478mm"
   height="26.895838mm"
   viewBox="0 0 39.832478 26.895838"
   version="1.1"
   id="svg1"
   xml:space="preserve"
   xmlns="http://www.w3.org/2000/svg"
   xmlns:svg="http://www.w3.org/2000/svg"><defs
     id="defs1"><marker
       style="overflow:visible"
       id="ArrowWideRounded"
       refX="0"
       refY="0"
       orient="auto-start-reverse"
       markerWidth="1"
       markerHeight="1"
       viewBox="0 0 1 1"
       preserveAspectRatio="xMidYMid"><path
         style="fill:none;stroke:context-stroke;stroke-width:1;stroke-linecap:round"
         d="M 3,-3 0,0 3,3"
         transform="rotate(180,0.125,0)"
         id="path2" /></marker></defs><g
     id="layer1"
     transform="translate(-20.316558,-64.705213)"><path
       style="fill:#000000;stroke-width:1.065;stroke-dasharray:8.52, 1.065;stroke-dashoffset:0;marker-mid:url(#ArrowWideRounded)"
       d="m 50.15793,73.814073 v 3.770313"
       id="path3" /><path
       style="fill:none;fill-opacity:1;stroke:#57068c;stroke-width:0.43652;stroke-dasharray:0.43652, 0.43652;stroke-dashoffset:0;stroke-opacity:1"
       d="M 51.285088,81.970303 V 77.357207"
       id="path15-0-3-3" /><path
       style="fill:none;fill-opacity:1;stroke:#57068c;stroke-width:0.5;stroke-dasharray:none;stroke-dashoffset:0;stroke-opacity:1"
       d="M 59.597267,90.752552 V 67.575482"
       id="path15-0-3-3-7" /><path
       style="fill:none;fill-opacity:1;stroke:#57068c;stroke-width:0.514015;stroke-dasharray:none;stroke-dashoffset:0;stroke-opacity:1"
       d="M 42.3091,90.699435 V 71.272041"
       id="path15-0-3-3-7-8" /><path
       style="fill:none;fill-opacity:1;stroke:#57068c;stroke-width:0.5;stroke-dasharray:none;stroke-dashoffset:0;stroke-opacity:1"
       d="M 46.064403,66.867873 H 60.020955"
       id="path15-0-3-3-7-8-6" /><path
       style="fill:none;fill-opacity:1;stroke:#57068c;stroke-width:0.5;stroke-dasharray:none;stroke-dashoffset:0;stroke-opacity:1"
       d="M 27.096725,80.638393 H 41.053277"
       id="path15-0-3-3-7-8-6-5" /><path
       style="fill:none;fill-opacity:1;stroke:#57068c;stroke-width:0.5;stroke-dasharray:none;stroke-dashoffset:0;stroke-opacity:1"
       d="m 42.012516,91.351056 h 18.13652"
       id="path15-0-3-3-7-8-6-9" /><g
       style="fill:none;stroke:currentColor;stroke-width:2;stroke-linecap:round;stroke-linejoin:round;stroke-dasharray:16, 2;stroke-dashoffset:0"
       id="g1"
       transform="matrix(0.26458333,0,0,0.26458333,47.932226,70.705096)"><rect
         width="20"
         height="8"
         x="2"
         y="2"
         rx="2"
         ry="2"
         id="rect1"
         style="stroke-dasharray:16, 2;stroke-dashoffset:0" /><rect
         width="20"
         height="8"
         x="2"
         y="14"
         rx="2"
         ry="2"
         id="rect2"
         style="stroke-dasharray:16, 2;stroke-dashoffset:0" /><line
         x1="6"
         x2="6.0100002"
         y1="6"
         y2="6"
         id="line2"
         style="stroke-dasharray:16, 2;stroke-dashoffset:0" /><line
         x1="6"
         x2="6.0100002"
         y1="18"
         y2="18"
         id="line3"
         style="stroke-dasharray:16, 2;stroke-dashoffset:0" /></g><g
       style="fill:none;stroke:#000000;stroke-width:2;stroke-linecap:round;stroke-linejoin:round"
       id="g2"
       transform="matrix(0.26458333,0,0,0.26458333,39.544983,64.44063)"><rect
         width="18"
         height="11"
         x="3"
         y="11"
         rx="2"
         ry="2"
         id="rect1-5" /><path
         d="M 7,11 V 7 a 5,5 0 0 1 10,0 v 4"
         id="path1" /></g><g
       style="fill:none;stroke:#000000;stroke-width:2;stroke-linecap:round;stroke-linejoin:round"
       id="g3"
       transform="matrix(0.26458333,0,0,0.26458333,47.947687,81.979699)"><rect
         width="8"
         height="5"
         x="14"
         y="17"
         rx="1"
         id="rect1-6" /><path
         d="M 10,20 H 4 A 2,2 0 0 1 2,18 V 5 A 2,2 0 0 1 4,3 H 7.9 A 2,2 0 0 1 9.59,3.9 L 10.4,5.1 A 2,2 0 0 0 12.07,6 H 20 a 2,2 0 0 1 2,2 v 2.5"
         id="path1-5" /><path
         d="m 20,17 v -2 a 2,2 0 1 0 -4,0 v 2"
         id="path2-9" /></g><g
       style="fill:none;stroke:#000000;stroke-width:2;stroke-linecap:round;stroke-linejoin:round"
       id="g4"
       transform="matrix(0.26458333,0,0,0.26458333,19.787392,76.758592)"><circle
         cx="10"
         cy="7"
         r="4"
         id="circle1" /><path
         d="M 10.3,15 H 7 a 4,4 0 0 0 -4,4 v 2"
         id="path1-54" /><path
         d="M 15,15.5 V 14 a 2,2 0 0 1 4,0 v 1.5"
         id="path2-91" /><rect
         width="8"
         height="5"
         x="13"
         y="16"
         rx="0.89899999"
         id="rect2-7" /></g><g
       style="fill:none;stroke:#000000;stroke-width:2;stroke-linecap:round;stroke-linejoin:round"
       id="g5"
       transform="matrix(0.26458333,0,0,0.26458333,31.120785,73.22936)"><path
         d="m 15.5,7.5 2.3,2.3 a 1,1 0 0 0 1.4,0 l 2.1,-2.1 a 1,1 0 0 0 0,-1.4 L 19,4"
         id="path1-55" /><path
         d="m 21,2 -9.6,9.6"
         id="path2-4" /><circle
         cx="7.5"
         cy="15.5"
         r="5.5"
         id="circle2" /></g></g></svg>
